<?xml version="1.0" encoding="utf-8"?>
<!-- Generator: Adobe Illustrator 27.4.1, SVG Export Plug-In . SVG Version: 6.00 Build 0)  -->
<svg version="1.1" id="Layer_1" xmlns="http://www.w3.org/2000/svg" xmlns:xlink="http://www.w3.org/1999/xlink" x="0px" y="0px"
	 width="99px" height="73px" viewBox="0 0 99 73" style="enable-background:new 0 0 99 73;" xml:space="preserve">
<style type="text/css">
	.st0{fill:#3B1B50;}
	.st1{fill:#FCC04E;}
</style>
<path class="st1" d="M23.9,9.1L23.9,9.1c-1.1,0-2.1-0.9-2.1-2.1V3.4c0-1.1,0.9-2.1,2.1-2.1h0c1.1,0,2.1,0.9,2.1,2.1V7
	C25.9,8.2,25,9.1,23.9,9.1z"/>
<g>
	<path class="st1" d="M31.1,10.6L31.1,10.6c-0.9-0.7-1.1-2-0.4-2.9l2.2-2.9c0.7-0.9,2-1.1,2.9-0.4l0,0c0.9,0.7,1.1,2,0.4,2.9
		L34,10.2C33.3,11.1,32,11.2,31.1,10.6z"/>
	<path class="st1" d="M16.7,10.6L16.7,10.6c0.9-0.7,1.1-2,0.4-2.9l-2.2-2.9c-0.7-0.9-2-1.1-2.9-0.4l0,0c-0.9,0.7-1.1,2-0.4,2.9
		l2.2,2.9C14.5,11.1,15.8,11.2,16.7,10.6z"/>
</g>
<g>
	<path class="st1" d="M36.8,16.3L36.8,16.3c-0.6-1-0.2-2.2,0.8-2.8l3.1-1.8c1-0.6,2.2-0.2,2.8,0.8v0c0.6,1,0.2,2.2-0.8,2.8L39.6,17
		C38.6,17.6,37.4,17.3,36.8,16.3z"/>
	<path class="st1" d="M11,16.3L11,16.3c0.6-1,0.2-2.2-0.8-2.8l-3.1-1.8c-1-0.6-2.2-0.2-2.8,0.8l0,0c-0.6,1-0.2,2.2,0.8,2.8L8.2,17
		C9.2,17.6,10.4,17.3,11,16.3z"/>
</g>
<path class="st0" d="M23.9,29.5c-1.7-1.8-8.7-7.8-21.9-7.7v3.6c0,0,12.1-0.2,20,7.7h1.4h0.9h1.4c7.9-7.9,20-7.7,20-7.7v-3.6
	C32.6,21.8,25.6,27.8,23.9,29.5z"/>
<path class="st1" d="M24,11.4L24,11.4C24,11.4,23.9,11.4,24,11.4C23.9,11.4,23.9,11.4,24,11.4C23.9,11.4,23.9,11.4,24,11.4
	C23.9,11.4,23.9,11.4,24,11.4c-0.1,0-0.1,0-0.1,0c0,0,0,0,0,0v0c-10.1,0.1-12.4,9.4-12.4,9.4s9.3,1.6,12.5,6.4c0,0,0,0,0,0
	c0,0,0,0,0,0c3.3-4.7,12.5-6.4,12.5-6.4S34.1,11.5,24,11.4z"/>
<g>
	<g>
		<path class="st0" d="M11.2,47.1c0-2.4-1-3.6-2.9-3.6c-1,0-1.7,0.3-2.3,0.9c-0.6,0.6-0.8,1.6-0.8,2.8v6.9H2.7V41.5H5L5.2,43
			c0.4-0.5,0.9-0.9,1.5-1.2c0.6-0.3,1.3-0.4,2.1-0.4c0.9,0,1.8,0.2,2.5,0.6c0.7,0.4,1.3,0.9,1.7,1.7c0.4-0.8,1-1.3,1.8-1.7
			c0.8-0.4,1.6-0.6,2.5-0.6c1.5,0,2.7,0.5,3.6,1.4c0.9,0.9,1.4,2.3,1.4,4.1v7.4h-2.5v-7.1c0-1.2-0.3-2.1-0.8-2.7
			c-0.5-0.6-1.2-0.9-2.2-0.9c-0.9,0-1.7,0.3-2.3,0.9c-0.6,0.6-0.8,1.6-0.8,2.8v6.9h-2.5V47.1z"/>
		<path class="st0" d="M33.7,54.2l-0.2-1.8c-0.4,0.6-0.9,1.1-1.5,1.5c-0.6,0.4-1.4,0.6-2.3,0.6c-1.3,0-2.4-0.3-3.2-1
			c-0.8-0.7-1.2-1.6-1.2-2.7c0-0.7,0.2-1.3,0.5-1.8c0.3-0.5,0.7-0.9,1.3-1.2c0.5-0.3,1.1-0.5,1.7-0.7c0.6-0.2,1.3-0.3,2-0.4
			c0.9-0.1,1.6-0.2,2-0.4c0.4-0.1,0.6-0.5,0.6-0.9c0-0.5-0.2-1-0.6-1.4c-0.4-0.4-1-0.6-2-0.6c-0.7,0-1.3,0.2-1.9,0.6
			c-0.5,0.4-0.9,0.9-1.1,1.6l-2.2-0.8c0.3-1.1,0.9-2,1.9-2.6c0.9-0.7,2.1-1,3.4-1c1.5,0,2.7,0.4,3.6,1.3c0.9,0.9,1.4,2.2,1.4,4.1
			v7.5H33.7z M33.5,48.4l-3,0.4c-0.9,0.1-1.5,0.3-1.9,0.6c-0.4,0.3-0.6,0.7-0.6,1.2c0,0.5,0.2,0.9,0.6,1.2c0.4,0.3,0.9,0.4,1.6,0.4
			c0.9,0,1.7-0.3,2.3-0.9c0.6-0.6,1-1.5,1-2.6V48.4z"/>
		<path class="st0" d="M39.8,41.5h2.3l0.2,1.6c0.4-0.5,0.9-0.9,1.4-1.2c0.6-0.3,1.2-0.5,1.8-0.5c0.2,0,0.3,0,0.5,0
			c0.2,0,0.4,0.1,0.6,0.1v2.5C46.4,44,46,44,45.7,44c-0.5,0-1.1,0.1-1.6,0.4c-0.5,0.3-0.9,0.7-1.2,1.3c-0.3,0.6-0.5,1.3-0.5,2.2v6.2
			h-2.5V41.5z"/>
		<path class="st0" d="M56.3,54.2l-0.2-1.8c-0.4,0.6-0.9,1.1-1.5,1.5c-0.6,0.4-1.4,0.6-2.3,0.6c-1.3,0-2.4-0.3-3.2-1
			c-0.8-0.7-1.2-1.6-1.2-2.7c0-0.7,0.2-1.3,0.5-1.8c0.3-0.5,0.7-0.9,1.3-1.2c0.5-0.3,1.1-0.5,1.7-0.7c0.6-0.2,1.3-0.3,2-0.4
			c0.9-0.1,1.6-0.2,2-0.4c0.4-0.1,0.6-0.5,0.6-0.9c0-0.5-0.2-1-0.6-1.4c-0.4-0.4-1-0.6-2-0.6c-0.7,0-1.3,0.2-1.9,0.6
			c-0.5,0.4-0.9,0.9-1.1,1.6l-2.2-0.8c0.3-1.1,0.9-2,1.9-2.6c0.9-0.7,2.1-1,3.4-1c1.5,0,2.7,0.4,3.6,1.3c0.9,0.9,1.4,2.2,1.4,4.1
			v7.5H56.3z M56.1,48.4l-3,0.4c-0.9,0.1-1.5,0.3-1.9,0.6c-0.4,0.3-0.6,0.7-0.6,1.2c0,0.5,0.2,0.9,0.6,1.2c0.4,0.3,0.9,0.4,1.6,0.4
			c0.9,0,1.7-0.3,2.3-0.9c0.6-0.6,1-1.5,1-2.6V48.4z"/>
		<path class="st0" d="M71.1,47.1c0-1.2-0.3-2.1-0.8-2.7c-0.5-0.6-1.3-0.9-2.2-0.9c-1,0-1.7,0.3-2.3,0.9C65.2,45.1,65,46,65,47.2v7
			h-2.5V41.5h2.3l0.2,1.4c0.4-0.5,0.9-0.9,1.6-1.2c0.6-0.3,1.3-0.4,2.1-0.4c1.5,0,2.7,0.5,3.6,1.4c0.9,0.9,1.4,2.3,1.4,4.1v7.4h-2.5
			V47.1z"/>
		<path class="st0" d="M87,41.5h2.3v10.6c0,1.6-0.4,2.9-1.2,3.9c-0.8,1-1.8,1.8-3.2,2.4c-1.3,0.5-2.9,0.8-4.5,0.9l-0.4-2.1
			c1.2-0.1,2.3-0.3,3.3-0.6c1-0.3,1.8-0.8,2.4-1.5c0.6-0.7,0.9-1.6,1-2.7c-0.4,0.5-1,1-1.7,1.4c-0.7,0.4-1.6,0.6-2.6,0.6
			c-1.1,0-2.1-0.3-3-0.8c-0.9-0.6-1.6-1.3-2.1-2.3c-0.5-1-0.7-2.1-0.7-3.5c0-1.3,0.2-2.4,0.7-3.4c0.5-1,1.2-1.7,2.1-2.3
			c0.9-0.5,1.9-0.8,3-0.8c1,0,1.9,0.2,2.6,0.6c0.7,0.4,1.3,0.9,1.7,1.5L87,41.5z M79.2,47.8c0,1.4,0.4,2.5,1.1,3.3
			c0.7,0.8,1.6,1.2,2.6,1.2c0.7,0,1.3-0.2,1.9-0.5c0.6-0.3,1.1-0.8,1.4-1.5c0.4-0.7,0.5-1.4,0.5-2.4c0-0.9-0.2-1.7-0.5-2.3
			c-0.4-0.6-0.8-1.1-1.4-1.5c-0.6-0.3-1.2-0.5-1.9-0.5c-1,0-1.9,0.4-2.6,1.1C79.6,45.4,79.2,46.4,79.2,47.8z"/>
	</g>
	<g>
		<path class="st0" d="M5.5,70.8c-0.6,0-1.1-0.1-1.6-0.4c-0.5-0.3-0.8-0.7-1.1-1.1c-0.3-0.5-0.4-1.1-0.4-1.8c0-0.7,0.1-1.2,0.4-1.7
			c0.3-0.5,0.6-0.9,1.1-1.1c0.5-0.3,1-0.4,1.6-0.4c0.6,0,1.2,0.1,1.6,0.4c0.4,0.3,0.8,0.6,1,1.1c0.2,0.4,0.3,0.9,0.3,1.4
			c0,0.1,0,0.2,0,0.3c0,0.1,0,0.2,0,0.3H3.3c0,0.5,0.1,1,0.3,1.3c0.2,0.4,0.5,0.6,0.8,0.8c0.3,0.2,0.7,0.3,1.1,0.3
			c0.5,0,1-0.1,1.4-0.3c0.4-0.2,0.7-0.5,0.8-0.9l0.6,0.3c-0.2,0.5-0.6,0.9-1,1.2C6.8,70.7,6.2,70.8,5.5,70.8z M7.6,67.1
			c0-0.5-0.1-0.9-0.3-1.2c-0.2-0.3-0.5-0.6-0.8-0.7c-0.3-0.2-0.7-0.3-1.1-0.3c-0.4,0-0.7,0.1-1.1,0.2c-0.3,0.2-0.6,0.4-0.8,0.7
			c-0.2,0.3-0.3,0.7-0.4,1.2H7.6z"/>
		<path class="st0" d="M15.4,61.6h0.8v9.1h-0.7l0-1.4c-0.2,0.4-0.5,0.8-0.9,1.1c-0.4,0.3-0.9,0.4-1.6,0.4c-0.6,0-1.1-0.1-1.6-0.4
			c-0.5-0.3-0.8-0.6-1.1-1.1c-0.2-0.5-0.4-1.1-0.4-1.7c0-0.7,0.1-1.2,0.4-1.7c0.2-0.5,0.6-0.9,1.1-1.1c0.5-0.3,1-0.4,1.6-0.4
			c0.6,0,1.1,0.1,1.5,0.4c0.4,0.3,0.7,0.6,0.9,1.1V61.6z M10.7,67.5c0,0.8,0.2,1.5,0.6,1.9c0.4,0.5,1,0.7,1.7,0.7
			c0.4,0,0.8-0.1,1.2-0.3c0.3-0.2,0.6-0.5,0.8-0.9c0.2-0.4,0.3-0.9,0.3-1.4c0-0.5-0.1-1-0.3-1.4c-0.2-0.4-0.5-0.7-0.8-0.9
			c-0.4-0.2-0.7-0.3-1.2-0.3c-0.7,0-1.3,0.2-1.7,0.7C11,66.1,10.7,66.7,10.7,67.5z"/>
		<path class="st0" d="M19.3,68c0,0.7,0.2,1.2,0.5,1.6c0.3,0.4,0.8,0.5,1.4,0.5c0.6,0,1.1-0.2,1.4-0.6c0.4-0.4,0.5-1,0.5-1.8v-3.4
			H24v6.3h-0.7l-0.1-1.1c-0.2,0.4-0.5,0.7-0.8,0.9c-0.4,0.2-0.8,0.3-1.3,0.3c-0.5,0-0.9-0.1-1.3-0.3c-0.4-0.2-0.7-0.5-0.9-0.9
			c-0.2-0.4-0.3-0.9-0.3-1.6v-3.7h0.8V68z"/>
		<path class="st0" d="M29.1,70.8c-0.6,0-1.1-0.1-1.6-0.4c-0.5-0.3-0.8-0.6-1.1-1.1c-0.3-0.5-0.4-1.1-0.4-1.7c0-0.7,0.1-1.2,0.4-1.7
			c0.3-0.5,0.6-0.9,1.1-1.1c0.5-0.3,1-0.4,1.6-0.4c0.7,0,1.3,0.2,1.8,0.5c0.5,0.3,0.8,0.7,1.1,1.2l-0.7,0.2
			c-0.1-0.4-0.4-0.7-0.8-0.9c-0.4-0.2-0.8-0.3-1.3-0.3c-0.4,0-0.8,0.1-1.1,0.3c-0.4,0.2-0.6,0.5-0.9,0.9c-0.2,0.4-0.3,0.9-0.3,1.4
			c0,0.6,0.1,1.1,0.3,1.4c0.2,0.4,0.5,0.7,0.9,0.9c0.4,0.2,0.7,0.3,1.1,0.3c0.5,0,1-0.1,1.3-0.3c0.4-0.2,0.7-0.5,0.8-0.9l0.6,0.2
			c-0.2,0.5-0.6,0.9-1.1,1.2C30.4,70.7,29.8,70.8,29.1,70.8z"/>
		<path class="st0" d="M38.1,70.7l-0.1-1.4c-0.2,0.4-0.4,0.8-0.8,1.1c-0.4,0.3-0.8,0.4-1.4,0.4c-0.7,0-1.2-0.2-1.6-0.5
			c-0.4-0.3-0.6-0.7-0.6-1.3c0-0.4,0.1-0.8,0.3-1c0.2-0.3,0.5-0.5,0.9-0.6c0.4-0.1,0.8-0.2,1.3-0.3c0.5-0.1,0.8-0.1,1.1-0.1
			c0.3,0,0.4-0.1,0.5-0.2c0.1-0.1,0.1-0.2,0.1-0.3c0-0.3-0.1-0.5-0.2-0.7c-0.1-0.2-0.3-0.4-0.5-0.6C37.1,65,36.8,65,36.4,65
			c-0.4,0-0.8,0.1-1.2,0.4c-0.3,0.2-0.6,0.6-0.7,1l-0.6-0.2c0.2-0.5,0.5-1,0.9-1.3c0.4-0.3,1-0.5,1.6-0.5c0.4,0,0.8,0.1,1.2,0.3
			c0.4,0.2,0.7,0.5,0.9,0.8c0.2,0.4,0.3,0.9,0.3,1.4v3.9H38.1z M38.1,67.5l-1.9,0.2c-0.5,0.1-1,0.2-1.3,0.4
			c-0.3,0.2-0.4,0.5-0.4,0.9c0,0.4,0.1,0.7,0.4,0.8c0.3,0.2,0.6,0.3,1.1,0.3c0.4,0,0.8-0.1,1.1-0.3c0.3-0.2,0.6-0.5,0.7-0.8
			c0.2-0.3,0.3-0.7,0.3-1.2V67.5z"/>
		<path class="st0" d="M41.1,64.4c0.2,0,0.3,0,0.4-0.1c0.1-0.1,0.1-0.2,0.1-0.3v-1.1h0.7v1.6h1.8v0.7h-1.8v3.7c0,0.4,0.1,0.7,0.4,1
			c0.2,0.2,0.6,0.3,0.9,0.3c0.2,0,0.3,0,0.5,0v0.6c-0.2,0-0.4,0.1-0.6,0.1c-0.3,0-0.7-0.1-0.9-0.2c-0.3-0.1-0.5-0.4-0.7-0.6
			c-0.2-0.3-0.3-0.6-0.3-1.1v-3.7h-1v-0.7L41.1,64.4z"/>
		<path class="st0" d="M46.5,63c-0.1,0-0.3-0.1-0.4-0.2c-0.1-0.1-0.2-0.2-0.2-0.4c0-0.2,0.1-0.3,0.2-0.4c0.1-0.1,0.2-0.2,0.4-0.2
			c0.2,0,0.3,0.1,0.4,0.2s0.2,0.2,0.2,0.4c0,0.2-0.1,0.3-0.2,0.4S46.7,63,46.5,63z M46.2,64.4h0.8v6.3h-0.8V64.4z"/>
		<path class="st0" d="M52.3,70.8c-0.6,0-1.1-0.1-1.6-0.4c-0.5-0.3-0.8-0.6-1.1-1.1c-0.3-0.5-0.4-1.1-0.4-1.7s0.1-1.3,0.4-1.7
			c0.3-0.5,0.7-0.9,1.1-1.1c0.5-0.3,1-0.4,1.6-0.4c0.6,0,1.1,0.1,1.6,0.4c0.5,0.3,0.9,0.6,1.1,1.1c0.3,0.5,0.4,1.1,0.4,1.7
			s-0.1,1.3-0.4,1.7c-0.3,0.5-0.7,0.9-1.1,1.1C53.4,70.7,52.9,70.8,52.3,70.8z M52.3,70.2c0.4,0,0.8-0.1,1.2-0.3
			c0.4-0.2,0.7-0.5,0.9-0.9c0.2-0.4,0.3-0.9,0.3-1.5c0-0.6-0.1-1.1-0.3-1.5c-0.2-0.4-0.5-0.7-0.9-0.9C53.1,65,52.7,65,52.3,65
			c-0.4,0-0.8,0.1-1.2,0.3c-0.4,0.2-0.7,0.5-0.9,0.9c-0.2,0.4-0.3,0.9-0.3,1.5c0,0.6,0.1,1.1,0.3,1.5c0.2,0.4,0.5,0.7,0.9,0.9
			C51.5,70.1,51.9,70.2,52.3,70.2z"/>
		<path class="st0" d="M57.5,64.4h0.7l0.1,1.1c0.2-0.4,0.5-0.7,0.8-0.9c0.4-0.2,0.8-0.3,1.3-0.3c0.5,0,0.9,0.1,1.3,0.3
			c0.4,0.2,0.7,0.5,0.9,0.9c0.2,0.4,0.3,0.9,0.3,1.6v3.6h-0.7v-3.6c0-0.7-0.2-1.3-0.5-1.6c-0.3-0.4-0.8-0.6-1.4-0.6
			c-0.6,0-1.1,0.2-1.4,0.6c-0.4,0.4-0.5,1-0.5,1.8v3.4h-0.8V64.4z"/>
		<path class="st0" d="M68.8,64.4c0.2,0,0.3,0,0.4-0.1c0.1-0.1,0.1-0.2,0.1-0.3v-1.1H70v1.6h1.8v0.7H70v3.7c0,0.4,0.1,0.7,0.4,1
			c0.2,0.2,0.6,0.3,0.9,0.3c0.2,0,0.3,0,0.5,0v0.6c-0.2,0-0.4,0.1-0.6,0.1c-0.3,0-0.7-0.1-0.9-0.2c-0.3-0.1-0.5-0.4-0.7-0.6
			c-0.2-0.3-0.3-0.6-0.3-1.1v-3.7h-1v-0.7L68.8,64.4z"/>
		<path class="st0" d="M73.7,64.4h0.7l0.1,1.1c0.2-0.3,0.4-0.6,0.7-0.8c0.3-0.2,0.7-0.3,1.1-0.3c0.1,0,0.2,0,0.3,0
			c0.1,0,0.2,0,0.3,0.1v0.7c-0.1,0-0.2,0-0.3,0c-0.1,0-0.2,0-0.3,0c-0.3,0-0.6,0.1-0.9,0.2c-0.3,0.2-0.5,0.4-0.7,0.7
			c-0.2,0.3-0.3,0.8-0.3,1.3v3.4h-0.8V64.4z"/>
		<path class="st0" d="M79.3,68c0,0.7,0.2,1.2,0.5,1.6c0.3,0.4,0.8,0.5,1.4,0.5c0.6,0,1.1-0.2,1.4-0.6c0.4-0.4,0.5-1,0.5-1.8v-3.4
			h0.8v6.3h-0.7l-0.1-1.1c-0.2,0.4-0.5,0.7-0.8,0.9c-0.4,0.2-0.8,0.3-1.3,0.3c-0.5,0-0.9-0.1-1.3-0.3c-0.4-0.2-0.7-0.5-0.9-0.9
			c-0.2-0.4-0.3-0.9-0.3-1.6v-3.7h0.8V68z"/>
		<path class="st0" d="M86.5,68.9c0.1,0.5,0.4,0.8,0.7,1c0.4,0.2,0.8,0.3,1.2,0.3c0.4,0,0.8-0.1,1.1-0.3c0.3-0.2,0.4-0.5,0.4-0.8
			c0-0.2-0.1-0.4-0.2-0.6c-0.2-0.1-0.4-0.3-0.6-0.4c-0.3-0.1-0.5-0.2-0.8-0.2c-0.3-0.1-0.5-0.1-0.8-0.2c-0.3-0.1-0.5-0.2-0.7-0.3
			c-0.2-0.1-0.4-0.3-0.5-0.5C86.1,66.6,86,66.3,86,66c0-0.3,0.1-0.6,0.3-0.8c0.2-0.3,0.5-0.5,0.8-0.6c0.3-0.2,0.7-0.2,1.2-0.2
			c0.5,0,1,0.1,1.4,0.3c0.4,0.2,0.7,0.6,0.9,1.1l-0.6,0.2c-0.1-0.3-0.2-0.5-0.4-0.6c-0.2-0.1-0.4-0.2-0.6-0.3
			c-0.2-0.1-0.4-0.1-0.6-0.1c-0.4,0-0.8,0.1-1.1,0.3c-0.3,0.2-0.4,0.5-0.4,0.7c0,0.3,0.1,0.5,0.3,0.7c0.2,0.2,0.4,0.3,0.7,0.4
			c0.3,0.1,0.6,0.2,0.9,0.3c0.3,0.1,0.7,0.2,1,0.3c0.3,0.1,0.6,0.3,0.8,0.5c0.2,0.2,0.3,0.5,0.3,0.9c0,0.3-0.1,0.6-0.3,0.9
			c-0.2,0.3-0.5,0.5-0.8,0.6c-0.3,0.1-0.7,0.2-1.1,0.2c-0.6,0-1.1-0.1-1.6-0.4c-0.5-0.2-0.8-0.7-1-1.3L86.5,68.9z"/>
		<path class="st0" d="M92.5,64.4c0.2,0,0.3,0,0.4-0.1c0.1-0.1,0.1-0.2,0.1-0.3v-1.1h0.7v1.6h1.8v0.7h-1.8v3.7c0,0.4,0.1,0.7,0.4,1
			c0.2,0.2,0.6,0.3,0.9,0.3c0.2,0,0.3,0,0.5,0v0.6c-0.2,0-0.4,0.1-0.6,0.1c-0.3,0-0.7-0.1-0.9-0.2c-0.3-0.1-0.5-0.4-0.7-0.6
			c-0.2-0.3-0.3-0.6-0.3-1.1v-3.7h-1v-0.7L92.5,64.4z"/>
	</g>
</g>
</svg>
