<?xml version="1.0" encoding="UTF-8"?>
<svg id="Layer_1" data-name="Layer 1" xmlns="http://www.w3.org/2000/svg" viewBox="0 0 99 73">
  <defs>
    <style>
      .cls-1 {
        fill: #fcc04e;
      }

      .cls-2 {
        fill: #3b1b50;
      }
    </style>
  </defs>
  <rect class="cls-1" x="21.83" y="1.35" width="4.11" height="7.72" rx="2.06" ry="2.06"/>
  <g>
    <rect class="cls-1" x="31.35" y="3.62" width="4.11" height="7.72" rx="2.06" ry="2.06" transform="translate(11.27 -18.63) rotate(37.1)"/>
    <rect class="cls-1" x="12.31" y="3.62" width="4.11" height="7.72" rx="2.06" ry="2.06" transform="translate(30.33 4.78) rotate(142.9)"/>
  </g>
  <g>
    <rect class="cls-1" x="38.08" y="10.5" width="4.11" height="7.72" rx="2.06" ry="2.06" transform="translate(32.5 -27.58) rotate(60)"/>
    <rect class="cls-1" x="5.58" y="10.5" width="4.11" height="7.72" rx="2.06" ry="2.06" transform="translate(23.89 14.93) rotate(120)"/>
  </g>
  <path class="cls-2" d="m23.88,29.53c-1.74-1.76-8.68-7.78-21.88-7.7v3.59s12.11-.25,20.04,7.68h3.69c7.93-7.93,20.04-7.68,20.04-7.68v-3.59c-13.2-.09-20.14,5.94-21.88,7.7Z"/>
  <g>
    <path class="cls-2" d="m3,43.99c0-1.38-.03-2.51-.11-3.62h2.13l.11,2.15h.08c.75-1.27,1.99-2.46,4.2-2.46,1.82,0,3.2,1.1,3.78,2.68h.06c.41-.75.94-1.33,1.49-1.74.8-.61,1.68-.94,2.96-.94,1.77,0,4.39,1.16,4.39,5.8v7.87h-2.38v-7.57c0-2.57-.94-4.12-2.9-4.12-1.38,0-2.46,1.02-2.87,2.21-.11.33-.19.77-.19,1.22v8.26h-2.38v-8.01c0-2.13-.94-3.67-2.79-3.67-1.52,0-2.62,1.22-3.01,2.43-.14.36-.19.77-.19,1.19v8.07h-2.38v-9.75Z"/>
    <path class="cls-2" d="m33.44,53.74l-.19-1.68h-.08c-.75,1.05-2.18,1.99-4.09,1.99-2.71,0-4.09-1.91-4.09-3.84,0-3.23,2.87-5,8.04-4.97v-.28c0-1.1-.3-3.09-3.04-3.09-1.24,0-2.54.39-3.48.99l-.55-1.6c1.1-.72,2.71-1.19,4.39-1.19,4.09,0,5.08,2.79,5.08,5.47v5c0,1.16.06,2.29.22,3.2h-2.21Zm-.36-6.82c-2.65-.06-5.66.41-5.66,3.01,0,1.57,1.05,2.32,2.29,2.32,1.74,0,2.84-1.1,3.23-2.24.08-.25.14-.52.14-.77v-2.32Z"/>
    <path class="cls-2" d="m39.35,44.54c0-1.57-.03-2.93-.11-4.17h2.13l.08,2.62h.11c.61-1.8,2.07-2.93,3.7-2.93.28,0,.47.03.69.08v2.29c-.25-.06-.5-.08-.83-.08-1.71,0-2.93,1.3-3.26,3.12-.06.33-.11.72-.11,1.13v7.13h-2.4v-9.2Z"/>
    <path class="cls-2" d="m55.64,53.74l-.19-1.68h-.08c-.75,1.05-2.18,1.99-4.09,1.99-2.71,0-4.09-1.91-4.09-3.84,0-3.23,2.87-5,8.04-4.97v-.28c0-1.1-.3-3.09-3.04-3.09-1.24,0-2.54.39-3.48.99l-.55-1.6c1.1-.72,2.71-1.19,4.39-1.19,4.09,0,5.08,2.79,5.08,5.47v5c0,1.16.06,2.29.22,3.2h-2.21Zm-.36-6.82c-2.65-.06-5.66.41-5.66,3.01,0,1.57,1.05,2.32,2.29,2.32,1.74,0,2.84-1.1,3.23-2.24.08-.25.14-.52.14-.77v-2.32Z"/>
    <path class="cls-2" d="m61.55,43.99c0-1.38-.03-2.51-.11-3.62h2.15l.14,2.21h.06c.66-1.27,2.21-2.51,4.42-2.51,1.85,0,4.72,1.1,4.72,5.69v7.98h-2.43v-7.71c0-2.15-.8-3.95-3.09-3.95-1.6,0-2.84,1.13-3.26,2.49-.11.3-.17.72-.17,1.13v8.04h-2.43v-9.75Z"/>
    <path class="cls-2" d="m88.4,40.37c-.06.97-.11,2.04-.11,3.67v7.76c0,3.07-.61,4.94-1.91,6.1-1.3,1.22-3.18,1.6-4.86,1.6s-3.37-.39-4.45-1.1l.61-1.85c.88.55,2.26,1.05,3.92,1.05,2.49,0,4.31-1.3,4.31-4.67v-1.49h-.06c-.75,1.24-2.18,2.24-4.25,2.24-3.31,0-5.69-2.82-5.69-6.52,0-4.53,2.96-7.1,6.02-7.1,2.32,0,3.59,1.22,4.17,2.32h.06l.11-2.02h2.13Zm-2.51,5.28c0-.41-.03-.77-.14-1.1-.44-1.41-1.63-2.57-3.4-2.57-2.32,0-3.98,1.96-3.98,5.05,0,2.62,1.33,4.81,3.95,4.81,1.49,0,2.84-.94,3.37-2.49.14-.41.19-.88.19-1.3v-2.4Z"/>
  </g>
  <g>
    <path class="cls-2" d="m3.91,68.8c.03,1.64,1.08,2.32,2.29,2.32.87,0,1.39-.15,1.85-.35l.21.87c-.43.19-1.16.41-2.22.41-2.06,0-3.29-1.35-3.29-3.37s1.19-3.6,3.13-3.6c2.18,0,2.76,1.92,2.76,3.15,0,.25-.03.44-.04.57H3.91Zm3.56-.87c.01-.77-.32-1.97-1.68-1.97-1.23,0-1.77,1.13-1.86,1.97h3.55Z"/>
    <path class="cls-2" d="m16.27,62.12v8.08c0,.59.01,1.27.06,1.73h-1.09l-.06-1.16h-.03c-.37.75-1.19,1.31-2.28,1.31-1.62,0-2.86-1.37-2.86-3.4-.01-2.22,1.37-3.59,3-3.59,1.02,0,1.71.48,2.02,1.02h.03v-3.99h1.21Zm-1.21,5.84c0-.15-.01-.36-.06-.51-.18-.77-.84-1.41-1.75-1.41-1.26,0-2,1.1-2,2.58,0,1.35.66,2.47,1.97,2.47.81,0,1.56-.54,1.78-1.45.04-.17.06-.33.06-.52v-1.16Z"/>
    <path class="cls-2" d="m24.23,70.1c0,.69.01,1.3.06,1.82h-1.08l-.07-1.09h-.03c-.32.54-1.02,1.24-2.21,1.24-1.05,0-2.31-.58-2.31-2.93v-3.91h1.22v3.7c0,1.27.39,2.13,1.49,2.13.81,0,1.38-.57,1.6-1.1.07-.18.11-.4.11-.62v-4.1h1.22v4.86Z"/>
    <path class="cls-2" d="m31.35,71.67c-.32.17-1.02.39-1.92.39-2.02,0-3.33-1.37-3.33-3.41s1.41-3.55,3.59-3.55c.72,0,1.35.18,1.68.35l-.28.94c-.29-.17-.75-.32-1.41-.32-1.53,0-2.36,1.13-2.36,2.53,0,1.55.99,2.5,2.32,2.5.69,0,1.15-.18,1.49-.33l.21.91Z"/>
    <path class="cls-2" d="m36.82,71.92l-.1-.84h-.04c-.37.52-1.09.99-2.04.99-1.35,0-2.04-.95-2.04-1.92,0-1.62,1.44-2.5,4.02-2.49v-.14c0-.55-.15-1.55-1.52-1.55-.62,0-1.27.19-1.74.5l-.28-.8c.55-.36,1.35-.59,2.2-.59,2.04,0,2.54,1.39,2.54,2.73v2.5c0,.58.03,1.15.11,1.6h-1.1Zm-.18-3.41c-1.33-.03-2.83.21-2.83,1.5,0,.79.52,1.16,1.15,1.16.87,0,1.42-.55,1.62-1.12.04-.12.07-.26.07-.39v-1.16Z"/>
    <path class="cls-2" d="m41.53,63.32v1.92h1.74v.93h-1.74v3.6c0,.83.23,1.3.91,1.3.32,0,.55-.04.7-.08l.06.91c-.23.1-.61.17-1.08.17-.57,0-1.02-.18-1.31-.51-.35-.36-.47-.95-.47-1.74v-3.65h-1.04v-.93h1.04v-1.6l1.19-.32Z"/>
    <path class="cls-2" d="m46.34,63.36c.01.41-.29.75-.77.75-.43,0-.73-.33-.73-.75s.32-.76.76-.76.75.33.75.76Zm-1.35,8.56v-6.68h1.21v6.68h-1.21Z"/>
    <path class="cls-2" d="m54.61,68.52c0,2.47-1.71,3.55-3.33,3.55-1.81,0-3.2-1.33-3.2-3.44,0-2.24,1.46-3.55,3.31-3.55s3.22,1.39,3.22,3.44Zm-5.3.07c0,1.46.84,2.57,2.03,2.57s2.03-1.09,2.03-2.6c0-1.13-.57-2.57-2-2.57s-2.06,1.33-2.06,2.6Z"/>
    <path class="cls-2" d="m56.49,67.05c0-.69-.01-1.26-.06-1.81h1.08l.07,1.1h.03c.33-.64,1.1-1.26,2.21-1.26.92,0,2.36.55,2.36,2.84v3.99h-1.22v-3.85c0-1.08-.4-1.97-1.55-1.97-.8,0-1.42.57-1.63,1.24-.06.15-.08.36-.08.57v4.02h-1.22v-4.87Z"/>
    <path class="cls-2" d="m71.9,63.32v1.92h1.74v.93h-1.74v3.6c0,.83.23,1.3.91,1.3.32,0,.55-.04.7-.08l.06.91c-.23.1-.61.17-1.08.17-.57,0-1.02-.18-1.31-.51-.34-.36-.47-.95-.47-1.74v-3.65h-1.04v-.93h1.04v-1.6l1.19-.32Z"/>
    <path class="cls-2" d="m75.35,67.32c0-.79-.01-1.46-.06-2.09h1.06l.04,1.31h.06c.3-.9,1.04-1.46,1.85-1.46.14,0,.23.01.35.04v1.15c-.12-.03-.25-.04-.41-.04-.86,0-1.46.65-1.63,1.56-.03.17-.06.36-.06.57v3.56h-1.2v-4.6Z"/>
    <path class="cls-2" d="m85.8,70.1c0,.69.01,1.3.06,1.82h-1.08l-.07-1.09h-.03c-.32.54-1.02,1.24-2.21,1.24-1.05,0-2.31-.58-2.31-2.93v-3.91h1.21v3.7c0,1.27.39,2.13,1.49,2.13.81,0,1.38-.57,1.6-1.1.07-.18.11-.4.11-.62v-4.1h1.21v4.86Z"/>
    <path class="cls-2" d="m88,70.68c.36.23.99.48,1.6.48.88,0,1.3-.44,1.3-.99,0-.58-.35-.9-1.24-1.23-1.2-.43-1.77-1.09-1.77-1.89,0-1.08.87-1.96,2.31-1.96.68,0,1.27.19,1.64.41l-.3.88c-.26-.17-.75-.39-1.37-.39-.72,0-1.12.41-1.12.91,0,.55.4.8,1.27,1.13,1.16.44,1.75,1.02,1.75,2.02,0,1.17-.91,2-2.5,2-.73,0-1.41-.18-1.88-.46l.3-.92Z"/>
    <path class="cls-2" d="m95.44,63.32v1.92h1.74v.93h-1.74v3.6c0,.83.23,1.3.91,1.3.32,0,.55-.04.7-.08l.06.91c-.23.1-.61.17-1.08.17-.57,0-1.02-.18-1.31-.51-.34-.36-.47-.95-.47-1.74v-3.65h-1.04v-.93h1.04v-1.6l1.19-.32Z"/>
  </g>
  <path class="cls-1" d="m23.97,11.4h0s-.02,0-.04,0c-.02,0-.03,0-.05,0,0,0,0,0,0,0s0,0,0,0c-.02,0-.03,0-.05,0-.01,0-.02,0-.04,0h0c-10.09.08-12.44,9.43-12.44,9.43,0,0,9.25,1.63,12.52,6.35,0,0,0,0,0-.02,0,.01,0,.02,0,.02,3.27-4.72,12.52-6.35,12.52-6.35,0,0-2.35-9.35-12.44-9.43Z"/>
</svg>